<?xml version="1.0" standalone="no"?>
<!DOCTYPE svg PUBLIC "-//W3C//DTD SVG 20010904//EN"
 "http://www.w3.org/TR/2001/REC-SVG-20010904/DTD/svg10.dtd">
<svg version="1.0" xmlns="http://www.w3.org/2000/svg"
 width="626.000000pt" height="352.000000pt" viewBox="0 0 626.000000 352.000000"
 preserveAspectRatio="xMidYMid meet">

<g transform="translate(0.000000,352.000000) scale(0.100000,-0.100000)"
fill="#000000" stroke="none">
<path d="M30 3511 l-25 -7 -3 -1752 -2 -1752 3130 0 3130 0 0 1760 0 1760
-3102 -1 c-1707 -1 -3114 -4 -3128 -8z m3956 -446 c18 -28 12 -69 -16 -102
-23 -28 -44 -29 -70 -3 -26 26 -26 70 1 104 26 33 63 34 85 1z m44 21 c0 -3
-4 -8 -10 -11 -5 -3 -10 -1 -10 4 0 6 5 11 10 11 6 0 10 -2 10 -4z m-160 -129
c0 -2 -10 -12 -21 -23 -22 -19 -22 -19 -10 4 10 18 31 31 31 19z m333 -579 c3
-13 6 -98 7 -189 l1 -167 -40 -4 -41 -4 0 193 0 193 34 0 c27 0 35 -5 39 -22z
m-808 -38 c-9 -16 -18 -30 -21 -30 -2 0 2 14 11 30 9 17 18 30 21 30 2 0 -2
-13 -11 -30z m525 -245 c0 -141 -2 -155 -17 -155 -10 0 -28 -3 -40 -6 l-23 -6
0 154 c0 85 3 158 7 161 3 4 21 7 40 7 l33 0 0 -155z m-597 110 c-3 -9 -8 -14
-10 -11 -3 3 -2 9 2 15 9 16 15 13 8 -4z m-27 -58 c-17 -42 -45 -94 -46 -86 0
10 51 119 56 119 2 0 -2 -15 -10 -33z m224 -386 l0 -339 -35 -4 -35 -4 0 337
c0 367 -3 344 53 348 16 1 17 -21 17 -338z m-319 168 c-45 -106 -68 -166 -187
-481 -112 -299 -209 -484 -310 -597 -43 -48 -140 -118 -150 -108 -3 2 19 18
48 35 107 60 199 192 308 442 18 41 80 196 137 344 113 295 193 489 199 483 2
-2 -18 -55 -45 -118z m189 -283 l0 -174 -30 -4 c-17 -3 -31 -3 -33 -2 -1 1 -1
81 1 178 l3 176 29 0 30 0 0 -174z m-890 -6 l0 -160 -25 0 -25 0 0 153 c0 85
3 157 7 160 3 4 15 7 25 7 17 0 18 -12 18 -160z m-1036 44 c17 -45 -6 -93 -39
-80 -15 5 -22 76 -8 89 12 13 41 7 47 -9z m64 -31 c-10 -2 -26 -2 -35 0 -10 3
-2 5 17 5 19 0 27 -2 18 -5z m-133 -23 c-3 -5 -16 -15 -28 -21 -21 -10 -21 -9
2 10 25 23 36 27 26 11z m1419 -16 c3 -9 6 -83 6 -165 l0 -149 -32 0 -33 0 3
159 c3 141 5 160 20 164 29 8 30 7 36 -9z m-404 -99 l0 -85 -30 0 -30 0 0 85
0 85 30 0 30 0 0 -85z m860 -36 l0 -120 -32 3 -33 3 0 110 c-1 61 1 113 3 118
2 4 16 7 33 7 l29 0 0 -121z m-662 -2 l4 -87 -31 0 -31 0 0 84 c0 72 3 85 18
89 33 9 37 0 40 -86z m-576 -299 c3 -152 3 -158 -23 -158 -16 0 -19 8 -19 53
0 29 -6 59 -12 66 -10 11 -10 13 0 7 9 -6 12 13 12 78 0 79 2 86 19 86 19 0
20 -9 23 -132z m180 -18 c-3 -141 -4 -150 -23 -150 -18 0 -19 8 -19 150 0 149
0 150 23 150 22 0 22 0 19 -150z m-440 -187 c-2 -91 -7 -150 -12 -138 -6 17
-8 14 -12 -15 -3 -19 -6 43 -6 138 -2 158 -1 172 16 172 16 0 17 -13 14 -157z
m168 -55 c0 -70 -2 -79 -17 -76 -15 3 -19 16 -21 67 -3 74 0 88 22 88 13 0 16
-14 16 -79z m255 -58 c33 -33 57 -60 54 -60 -2 0 -31 27 -64 60 -33 33 -57 60
-54 60 2 0 31 -27 64 -60z m333 -102 c14 -31 2 -75 -24 -85 -20 -7 -54 29 -54
58 0 57 54 76 78 27z m-172 -16 c-5 -4 -66 26 -66 33 0 3 16 -3 35 -12 19 -9
33 -18 31 -21z m-609 6 c-3 -8 -6 -5 -6 6 -1 11 2 17 5 13 3 -3 4 -12 1 -19z
m678 -18 l20 -9 -20 0 c-11 0 -29 4 -40 9 l-20 9 20 0 c11 0 29 -4 40 -9z"/>
<path d="M1753 895 c0 -22 2 -30 4 -17 2 12 2 30 0 40 -3 9 -5 -1 -4 -23z"/>
</g>
</svg>
